<svg id="visual" viewBox="0 0 900 900" width="900" height="900" xmlns="http://www.w3.org/2000/svg" xmlns:xlink="http://www.w3.org/1999/xlink" version="1.1"><g transform="translate(465.06208557332326 539.7620765080674)"><path d="M199.5 -249.4C278.4 -171.5 376.1 -127.5 405.8 -57C435.6 13.5 397.5 110.5 335.3 170.5C273.1 230.4 186.8 253.3 109 267.9C31.2 282.5 -38.1 288.8 -136 289.6C-234 290.5 -360.6 285.9 -413.6 224.2C-466.6 162.5 -446 43.7 -415.6 -63.7C-385.2 -171 -344.9 -267.1 -274 -346.4C-203.1 -425.7 -101.6 -488.4 -20.6 -463.8C60.3 -439.2 120.5 -327.3 199.5 -249.4" fill="#273fea"></path></g></svg>